G04 #@! TF.GenerationSoftware,KiCad,Pcbnew,5.1.5+dfsg1-2build2*
G04 #@! TF.CreationDate,2020-10-29T23:22:33-07:00*
G04 #@! TF.ProjectId,Tapper,54617070-6572-42e6-9b69-6361645f7063,rev?*
G04 #@! TF.SameCoordinates,Original*
G04 #@! TF.FileFunction,Copper,L1,Top*
G04 #@! TF.FilePolarity,Positive*
%FSLAX46Y46*%
G04 Gerber Fmt 4.6, Leading zero omitted, Abs format (unit mm)*
G04 Created by KiCad (PCBNEW 5.1.5+dfsg1-2build2) date 2020-10-29 23:22:33*
%MOMM*%
%LPD*%
G04 APERTURE LIST*
%ADD10C,5.000000*%
%ADD11C,1.530000*%
%ADD12R,1.530000X1.530000*%
%ADD13C,1.800000*%
%ADD14O,1.700000X1.700000*%
%ADD15R,1.700000X1.700000*%
%ADD16C,0.100000*%
%ADD17R,3.500000X3.500000*%
%ADD18C,0.800000*%
%ADD19C,0.250000*%
%ADD20C,0.508000*%
G04 APERTURE END LIST*
D10*
X225500000Y-94000000D03*
X149500000Y-93500000D03*
X225500000Y-50000000D03*
X149500000Y-50000000D03*
D11*
X190030000Y-84370000D03*
X190030000Y-69130000D03*
X187490000Y-84370000D03*
X187490000Y-69130000D03*
X184950000Y-84370000D03*
X184950000Y-69130000D03*
X182410000Y-84370000D03*
X182410000Y-69130000D03*
X179870000Y-84370000D03*
X179870000Y-69130000D03*
X177330000Y-84370000D03*
X177330000Y-69130000D03*
X174790000Y-84370000D03*
X174790000Y-69130000D03*
X172250000Y-84370000D03*
X172250000Y-69130000D03*
X169710000Y-84370000D03*
X169710000Y-69130000D03*
X167170000Y-84370000D03*
X167170000Y-69130000D03*
X164630000Y-84370000D03*
X164630000Y-69130000D03*
X162090000Y-84370000D03*
X162090000Y-69130000D03*
X159550000Y-84370000D03*
X159550000Y-69130000D03*
X157010000Y-84370000D03*
X157010000Y-69130000D03*
D12*
X154470000Y-84370000D03*
X154470000Y-69130000D03*
D13*
X222160000Y-86610000D03*
X219620000Y-86610000D03*
X217080000Y-86610000D03*
X214540000Y-86610000D03*
X212000000Y-86610000D03*
X209460000Y-86610000D03*
X206920000Y-86610000D03*
X204380000Y-86610000D03*
X201840000Y-86610000D03*
X199300000Y-86610000D03*
X222160000Y-84070000D03*
X219620000Y-84070000D03*
X217080000Y-84070000D03*
X214540000Y-84070000D03*
X212000000Y-84070000D03*
X209460000Y-84070000D03*
X206920000Y-84070000D03*
X204380000Y-84070000D03*
X201840000Y-84070000D03*
X199300000Y-84070000D03*
X222160000Y-81530000D03*
X219620000Y-81530000D03*
X217080000Y-81530000D03*
X214540000Y-81530000D03*
X212000000Y-81530000D03*
X209460000Y-81530000D03*
X206920000Y-81530000D03*
X204380000Y-81530000D03*
X201840000Y-81530000D03*
X199300000Y-81530000D03*
X222160000Y-78990000D03*
X219620000Y-78990000D03*
X217080000Y-78990000D03*
X214540000Y-78990000D03*
X212000000Y-78990000D03*
X209460000Y-78990000D03*
X206920000Y-78990000D03*
X204380000Y-78990000D03*
X201840000Y-78990000D03*
X199300000Y-78990000D03*
X222160000Y-76450000D03*
X219620000Y-76450000D03*
X217080000Y-76450000D03*
X214540000Y-76450000D03*
X212000000Y-76450000D03*
X209460000Y-76450000D03*
X206920000Y-76450000D03*
X204380000Y-76450000D03*
X201840000Y-76450000D03*
X199300000Y-76450000D03*
X222160000Y-73910000D03*
X219620000Y-73910000D03*
X217080000Y-73910000D03*
X214540000Y-73910000D03*
X212000000Y-73910000D03*
X209460000Y-73910000D03*
X206920000Y-73910000D03*
X204380000Y-73910000D03*
X201840000Y-73910000D03*
X199300000Y-73910000D03*
X222160000Y-71370000D03*
X219620000Y-71370000D03*
X217080000Y-71370000D03*
X214540000Y-71370000D03*
X212000000Y-71370000D03*
X209460000Y-71370000D03*
X206920000Y-71370000D03*
X204380000Y-71370000D03*
X201840000Y-71370000D03*
X199300000Y-71370000D03*
X222160000Y-68830000D03*
X219620000Y-68830000D03*
X217080000Y-68830000D03*
X214540000Y-68830000D03*
X212000000Y-68830000D03*
X209460000Y-68830000D03*
X206920000Y-68830000D03*
X204380000Y-68830000D03*
X201840000Y-68830000D03*
X199300000Y-68830000D03*
X222160000Y-66290000D03*
X219620000Y-66290000D03*
X217080000Y-66290000D03*
X214540000Y-66290000D03*
X212000000Y-66290000D03*
X209460000Y-66290000D03*
X206920000Y-66290000D03*
X204380000Y-66290000D03*
X201840000Y-66290000D03*
X199300000Y-66290000D03*
X222160000Y-63750000D03*
X219620000Y-63750000D03*
X217080000Y-63750000D03*
X214540000Y-63750000D03*
X212000000Y-63750000D03*
X209460000Y-63750000D03*
X206920000Y-63750000D03*
X204380000Y-63750000D03*
X201840000Y-63750000D03*
X199300000Y-63750000D03*
X227050000Y-55450000D03*
X225000000Y-80900000D03*
X225050000Y-70750000D03*
D14*
X230400000Y-55480000D03*
X230400000Y-58020000D03*
X230400000Y-60560000D03*
X230400000Y-63100000D03*
X230400000Y-65640000D03*
X230400000Y-68180000D03*
X230400000Y-70720000D03*
X230400000Y-73260000D03*
X230400000Y-75800000D03*
X230400000Y-78340000D03*
X230400000Y-80880000D03*
X230400000Y-83420000D03*
X230400000Y-85960000D03*
D15*
X230400000Y-88500000D03*
D13*
X220050000Y-93600000D03*
X217650000Y-93600000D03*
X215200000Y-93600000D03*
X207050000Y-94000000D03*
X216500000Y-59625000D03*
X221350000Y-56400000D03*
X218950000Y-56400000D03*
X216550000Y-56400000D03*
X214150000Y-56400000D03*
X200400000Y-56250000D03*
X198050000Y-56250000D03*
X195650000Y-56250000D03*
X193250000Y-56250000D03*
X179660000Y-56350000D03*
X177260000Y-56350000D03*
X174860000Y-56350000D03*
X172460000Y-56350000D03*
X199390000Y-93980000D03*
X196850000Y-93980000D03*
X194310000Y-93980000D03*
X191770000Y-93980000D03*
X201930000Y-93980000D03*
X204470000Y-93980000D03*
X187960000Y-64770000D03*
X185420000Y-64770000D03*
X182880000Y-64770000D03*
X180340000Y-64770000D03*
X177800000Y-64770000D03*
X175260000Y-64770000D03*
X172720000Y-64770000D03*
X170180000Y-64770000D03*
X167640000Y-64770000D03*
X193040000Y-64770000D03*
X190500000Y-64770000D03*
G04 #@! TA.AperFunction,ComponentPad*
D16*
G36*
X157210765Y-53654213D02*
G01*
X157295704Y-53666813D01*
X157378999Y-53687677D01*
X157459848Y-53716605D01*
X157537472Y-53753319D01*
X157611124Y-53797464D01*
X157680094Y-53848616D01*
X157743718Y-53906282D01*
X157801384Y-53969906D01*
X157852536Y-54038876D01*
X157896681Y-54112528D01*
X157933395Y-54190152D01*
X157962323Y-54271001D01*
X157983187Y-54354296D01*
X157995787Y-54439235D01*
X158000000Y-54525000D01*
X158000000Y-56275000D01*
X157995787Y-56360765D01*
X157983187Y-56445704D01*
X157962323Y-56528999D01*
X157933395Y-56609848D01*
X157896681Y-56687472D01*
X157852536Y-56761124D01*
X157801384Y-56830094D01*
X157743718Y-56893718D01*
X157680094Y-56951384D01*
X157611124Y-57002536D01*
X157537472Y-57046681D01*
X157459848Y-57083395D01*
X157378999Y-57112323D01*
X157295704Y-57133187D01*
X157210765Y-57145787D01*
X157125000Y-57150000D01*
X155375000Y-57150000D01*
X155289235Y-57145787D01*
X155204296Y-57133187D01*
X155121001Y-57112323D01*
X155040152Y-57083395D01*
X154962528Y-57046681D01*
X154888876Y-57002536D01*
X154819906Y-56951384D01*
X154756282Y-56893718D01*
X154698616Y-56830094D01*
X154647464Y-56761124D01*
X154603319Y-56687472D01*
X154566605Y-56609848D01*
X154537677Y-56528999D01*
X154516813Y-56445704D01*
X154504213Y-56360765D01*
X154500000Y-56275000D01*
X154500000Y-54525000D01*
X154504213Y-54439235D01*
X154516813Y-54354296D01*
X154537677Y-54271001D01*
X154566605Y-54190152D01*
X154603319Y-54112528D01*
X154647464Y-54038876D01*
X154698616Y-53969906D01*
X154756282Y-53906282D01*
X154819906Y-53848616D01*
X154888876Y-53797464D01*
X154962528Y-53753319D01*
X155040152Y-53716605D01*
X155121001Y-53687677D01*
X155204296Y-53666813D01*
X155289235Y-53654213D01*
X155375000Y-53650000D01*
X157125000Y-53650000D01*
X157210765Y-53654213D01*
G37*
G04 #@! TD.AperFunction*
G04 #@! TA.AperFunction,ComponentPad*
G36*
X154073513Y-58353611D02*
G01*
X154146318Y-58364411D01*
X154217714Y-58382295D01*
X154287013Y-58407090D01*
X154353548Y-58438559D01*
X154416678Y-58476398D01*
X154475795Y-58520242D01*
X154530330Y-58569670D01*
X154579758Y-58624205D01*
X154623602Y-58683322D01*
X154661441Y-58746452D01*
X154692910Y-58812987D01*
X154717705Y-58882286D01*
X154735589Y-58953682D01*
X154746389Y-59026487D01*
X154750000Y-59100000D01*
X154750000Y-61100000D01*
X154746389Y-61173513D01*
X154735589Y-61246318D01*
X154717705Y-61317714D01*
X154692910Y-61387013D01*
X154661441Y-61453548D01*
X154623602Y-61516678D01*
X154579758Y-61575795D01*
X154530330Y-61630330D01*
X154475795Y-61679758D01*
X154416678Y-61723602D01*
X154353548Y-61761441D01*
X154287013Y-61792910D01*
X154217714Y-61817705D01*
X154146318Y-61835589D01*
X154073513Y-61846389D01*
X154000000Y-61850000D01*
X152500000Y-61850000D01*
X152426487Y-61846389D01*
X152353682Y-61835589D01*
X152282286Y-61817705D01*
X152212987Y-61792910D01*
X152146452Y-61761441D01*
X152083322Y-61723602D01*
X152024205Y-61679758D01*
X151969670Y-61630330D01*
X151920242Y-61575795D01*
X151876398Y-61516678D01*
X151838559Y-61453548D01*
X151807090Y-61387013D01*
X151782295Y-61317714D01*
X151764411Y-61246318D01*
X151753611Y-61173513D01*
X151750000Y-61100000D01*
X151750000Y-59100000D01*
X151753611Y-59026487D01*
X151764411Y-58953682D01*
X151782295Y-58882286D01*
X151807090Y-58812987D01*
X151838559Y-58746452D01*
X151876398Y-58683322D01*
X151920242Y-58624205D01*
X151969670Y-58569670D01*
X152024205Y-58520242D01*
X152083322Y-58476398D01*
X152146452Y-58438559D01*
X152212987Y-58407090D01*
X152282286Y-58382295D01*
X152353682Y-58364411D01*
X152426487Y-58353611D01*
X152500000Y-58350000D01*
X154000000Y-58350000D01*
X154073513Y-58353611D01*
G37*
G04 #@! TD.AperFunction*
D17*
X159250000Y-60100000D03*
D18*
X194500000Y-71950000D03*
X192200000Y-73050000D03*
X186650000Y-78000000D03*
X183550000Y-92200000D03*
X203300000Y-61200000D03*
X165250000Y-61200000D03*
X218800000Y-59700000D03*
X186450000Y-61200000D03*
X158950000Y-90350000D03*
X206350000Y-60050000D03*
X168100000Y-60050000D03*
X189100000Y-60050000D03*
X163860000Y-46100000D03*
X178610000Y-46100000D03*
X184800000Y-46000000D03*
X199550000Y-46000000D03*
X220450000Y-46050000D03*
X205700000Y-46100000D03*
X185200000Y-51800000D03*
X158600000Y-88050000D03*
X158800000Y-98250000D03*
X164810000Y-51850000D03*
X206750000Y-51800000D03*
X154850000Y-95250000D03*
X209100000Y-58750000D03*
X170800000Y-58750000D03*
X192150000Y-58750000D03*
X224600000Y-63100000D03*
X224250000Y-78250000D03*
X227200000Y-68200000D03*
X227100000Y-58200000D03*
X226400000Y-75800000D03*
X226400000Y-60650000D03*
X225600000Y-83550000D03*
X167640000Y-76320000D03*
X225400000Y-60000000D03*
D19*
X190000000Y-84600000D02*
X190000000Y-84350000D01*
X199380000Y-93980000D02*
X190000000Y-84600000D01*
X199390000Y-93980000D02*
X199380000Y-93980000D01*
X190030000Y-69130000D02*
X187950000Y-67050000D01*
X187950000Y-67050000D02*
X187950000Y-64700000D01*
X187490000Y-69130000D02*
X185450000Y-67090000D01*
X185450000Y-67090000D02*
X185450000Y-64800000D01*
X185450000Y-64800000D02*
X185450000Y-64750000D01*
X192970000Y-90100000D02*
X196850000Y-93980000D01*
X189900000Y-90100000D02*
X192970000Y-90100000D01*
X184950000Y-85150000D02*
X189900000Y-90100000D01*
X184950000Y-84370000D02*
X184950000Y-85150000D01*
X184950000Y-69130000D02*
X182850000Y-67030000D01*
X182850000Y-67030000D02*
X182850000Y-64750000D01*
X193937500Y-94100000D02*
X193937500Y-94037500D01*
X194310000Y-93980000D02*
X194310000Y-93710000D01*
X194310000Y-93710000D02*
X191300000Y-90700000D01*
X191300000Y-90700000D02*
X188000000Y-90700000D01*
X182410000Y-85110000D02*
X188000000Y-90700000D01*
X182410000Y-84370000D02*
X182410000Y-85110000D01*
X191770000Y-93980000D02*
X188680000Y-93980000D01*
X179870000Y-85170000D02*
X188680000Y-93980000D01*
X179870000Y-84370000D02*
X179870000Y-85170000D01*
X201930000Y-93930000D02*
X201930000Y-93980000D01*
X199450000Y-92600000D02*
X200600000Y-92600000D01*
X200600000Y-92600000D02*
X201930000Y-93930000D01*
X191450000Y-84600000D02*
X199450000Y-92600000D01*
X191450000Y-83900000D02*
X191450000Y-84600000D01*
X190050000Y-82500000D02*
X191450000Y-83900000D01*
X179200000Y-82500000D02*
X190050000Y-82500000D01*
X177300000Y-84400000D02*
X179200000Y-82500000D01*
X178900000Y-66200000D02*
X180300000Y-64800000D01*
X177330000Y-67770000D02*
X178900000Y-66200000D01*
X177330000Y-69130000D02*
X177330000Y-67770000D01*
X202800000Y-95600000D02*
X204400000Y-94000000D01*
X188600000Y-95600000D02*
X202800000Y-95600000D01*
X176550000Y-86200000D02*
X179200000Y-86200000D01*
X179200000Y-86200000D02*
X188600000Y-95600000D01*
X174750000Y-84400000D02*
X176550000Y-86200000D01*
X174730000Y-84420000D02*
X174750000Y-84400000D01*
X176500000Y-66100000D02*
X177800000Y-64800000D01*
X174790000Y-67810000D02*
X176500000Y-66100000D01*
X174790000Y-69130000D02*
X174790000Y-67810000D01*
X175200000Y-64850000D02*
X175250000Y-64900000D01*
X175200000Y-64900000D02*
X175200000Y-64850000D01*
X172250000Y-67850000D02*
X175200000Y-64900000D01*
X172250000Y-69130000D02*
X172250000Y-67850000D01*
X169710000Y-67790000D02*
X171100000Y-66400000D01*
X171100000Y-66400000D02*
X172700000Y-64800000D01*
X169710000Y-69130000D02*
X169710000Y-67790000D01*
X164630000Y-69130000D02*
X164630000Y-67770000D01*
X164630000Y-67770000D02*
X166050000Y-66350000D01*
X166050000Y-66350000D02*
X168550000Y-66350000D01*
X168550000Y-66350000D02*
X170100000Y-64800000D01*
X167640000Y-64770000D02*
X162930000Y-64770000D01*
X162930000Y-64770000D02*
X159550000Y-68150000D01*
X159550000Y-68150000D02*
X159550000Y-69150000D01*
X157010000Y-69130000D02*
X157010000Y-70960000D01*
X157010000Y-70960000D02*
X158150000Y-72100000D01*
X194350000Y-72100000D02*
X194500000Y-71950000D01*
X158150000Y-72100000D02*
X194350000Y-72100000D01*
X154470000Y-69130000D02*
X154470000Y-71020000D01*
X154470000Y-71020000D02*
X156500000Y-73050000D01*
X156500000Y-73050000D02*
X192200000Y-73050000D01*
D20*
X186840000Y-84420000D02*
X186840000Y-84310000D01*
X215250000Y-95750000D02*
X215250000Y-93600000D01*
X214750000Y-96250000D02*
X215250000Y-95750000D01*
X184700000Y-96250000D02*
X214750000Y-96250000D01*
X183550000Y-95100000D02*
X184700000Y-96250000D01*
X183550000Y-92200000D02*
X183550000Y-95100000D01*
D19*
X203300000Y-61200000D02*
X217300000Y-61200000D01*
D20*
X150500000Y-76350000D02*
X152150000Y-78000000D01*
X150500000Y-68950000D02*
X150500000Y-76350000D01*
X154100000Y-65350000D02*
X150500000Y-68950000D01*
X161100000Y-65350000D02*
X154100000Y-65350000D01*
X165250000Y-61200000D02*
X161100000Y-65350000D01*
X203300000Y-61200000D02*
X165250000Y-61200000D01*
D19*
X217300000Y-61200000D02*
X218800000Y-59700000D01*
D20*
X152150000Y-78000000D02*
X186650000Y-78000000D01*
X217650000Y-93600000D02*
X217650000Y-96300000D01*
X217650000Y-96300000D02*
X216350000Y-97600000D01*
X216350000Y-97600000D02*
X171100000Y-97600000D01*
X171100000Y-97600000D02*
X162050000Y-88550000D01*
X162050000Y-88550000D02*
X162050000Y-84500000D01*
X162050000Y-84500000D02*
X162100000Y-84450000D01*
X162100000Y-84450000D02*
X162100000Y-84400000D01*
X160250000Y-90350000D02*
X162050000Y-88550000D01*
X158950000Y-90350000D02*
X160250000Y-90350000D01*
X162090000Y-83590000D02*
X162090000Y-84370000D01*
X159900000Y-81400000D02*
X162090000Y-83590000D01*
X151250000Y-81400000D02*
X159900000Y-81400000D01*
X149350000Y-79500000D02*
X151250000Y-81400000D01*
X149350000Y-68450000D02*
X149350000Y-79500000D01*
X153400000Y-64400000D02*
X149350000Y-68450000D01*
X160600000Y-64400000D02*
X153400000Y-64400000D01*
X164950000Y-60050000D02*
X160600000Y-64400000D01*
X206350000Y-60050000D02*
X164950000Y-60050000D01*
X158537500Y-88112500D02*
X158600000Y-88050000D01*
X156400000Y-88112500D02*
X158537500Y-88112500D01*
X160000000Y-60300000D02*
X160000000Y-60250000D01*
X161450000Y-98750000D02*
X157950000Y-95250000D01*
X220050000Y-98600000D02*
X219900000Y-98750000D01*
X219900000Y-98750000D02*
X161450000Y-98750000D01*
X220050000Y-93650000D02*
X220050000Y-98600000D01*
X157950000Y-95250000D02*
X154850000Y-95250000D01*
X220000000Y-93600000D02*
X220050000Y-93650000D01*
X163350000Y-60100000D02*
X159250000Y-60100000D01*
X164700000Y-58750000D02*
X163350000Y-60100000D01*
X209100000Y-58750000D02*
X164700000Y-58750000D01*
X154850000Y-91500000D02*
X154850000Y-95250000D01*
X148200000Y-84850000D02*
X154850000Y-91500000D01*
X148200000Y-67550000D02*
X148200000Y-84850000D01*
X152400000Y-63350000D02*
X148200000Y-67550000D01*
X156000000Y-63350000D02*
X152400000Y-63350000D01*
X159250000Y-60100000D02*
X156000000Y-63350000D01*
D19*
X224600000Y-62800000D02*
X224600000Y-63100000D01*
X223750000Y-61950000D02*
X224600000Y-62800000D01*
X197050000Y-62600000D02*
X197700000Y-61950000D01*
X197050000Y-66800000D02*
X197050000Y-62600000D01*
X193150000Y-70700000D02*
X197050000Y-66800000D01*
X183500000Y-70700000D02*
X193150000Y-70700000D01*
X197700000Y-61950000D02*
X223750000Y-61950000D01*
X182410000Y-69610000D02*
X183500000Y-70700000D01*
X182410000Y-69130000D02*
X182410000Y-69610000D01*
X179870000Y-69130000D02*
X179870000Y-70220000D01*
X179870000Y-70220000D02*
X181050000Y-71400000D01*
X181050000Y-71400000D02*
X193450000Y-71400000D01*
X193450000Y-71400000D02*
X197550000Y-67300000D01*
X197550000Y-67300000D02*
X197550000Y-63500000D01*
X197550000Y-63500000D02*
X198000000Y-63050000D01*
X198000000Y-63050000D02*
X198650000Y-62400000D01*
X198650000Y-62400000D02*
X223200000Y-62400000D01*
X223200000Y-62400000D02*
X223800000Y-63000000D01*
X223800000Y-63000000D02*
X223800000Y-77850000D01*
X224200000Y-78250000D02*
X224250000Y-78250000D01*
X223800000Y-77850000D02*
X224200000Y-78250000D01*
X228000000Y-73400000D02*
X228200000Y-73200000D01*
X228200000Y-73200000D02*
X230400000Y-73200000D01*
X228000000Y-73400000D02*
X228000000Y-66000000D01*
X228000000Y-66000000D02*
X228400000Y-65600000D01*
X228400000Y-65600000D02*
X230400000Y-65600000D01*
X228000000Y-88000000D02*
X228000000Y-73400000D01*
X226600000Y-89400000D02*
X228000000Y-88000000D01*
X224200000Y-89400000D02*
X226600000Y-89400000D01*
X221600000Y-92000000D02*
X224200000Y-89400000D01*
X199600000Y-92000000D02*
X221600000Y-92000000D01*
X192000000Y-84400000D02*
X199600000Y-92000000D01*
X192000000Y-83800000D02*
X192000000Y-84400000D01*
X190150000Y-81950000D02*
X192000000Y-83800000D01*
X174700000Y-81950000D02*
X190150000Y-81950000D01*
X172250000Y-84400000D02*
X174700000Y-81950000D01*
X227200000Y-58300000D02*
X227100000Y-58200000D01*
X227200000Y-68200000D02*
X227200000Y-58300000D01*
X190450000Y-81400000D02*
X172700000Y-81400000D01*
X192500000Y-83450000D02*
X190450000Y-81400000D01*
X221550000Y-91400000D02*
X199650000Y-91400000D01*
X172700000Y-81400000D02*
X169700000Y-84400000D01*
X227200000Y-85750000D02*
X221550000Y-91400000D01*
X192500000Y-84250000D02*
X192500000Y-83450000D01*
X199650000Y-91400000D02*
X192500000Y-84250000D01*
X227200000Y-68200000D02*
X227200000Y-85750000D01*
X226400000Y-75800000D02*
X226400000Y-61500000D01*
X226400000Y-61500000D02*
X226400000Y-60650000D01*
X226400000Y-78600000D02*
X226400000Y-75800000D01*
X226600000Y-85600000D02*
X226600000Y-78800000D01*
X221400000Y-90800000D02*
X226600000Y-85600000D01*
X226600000Y-78800000D02*
X226400000Y-78600000D01*
X199775000Y-90800000D02*
X221400000Y-90800000D01*
X193000000Y-84025000D02*
X199775000Y-90800000D01*
X193000000Y-83200000D02*
X193000000Y-84025000D01*
X190650000Y-80850000D02*
X193000000Y-83200000D01*
X170700000Y-80850000D02*
X190650000Y-80850000D01*
X167150000Y-84400000D02*
X170700000Y-80850000D01*
X221100000Y-90200000D02*
X225600000Y-85700000D01*
X199900000Y-90200000D02*
X221100000Y-90200000D01*
X193500000Y-83800000D02*
X199900000Y-90200000D01*
X193500000Y-82900000D02*
X193500000Y-83800000D01*
X186920000Y-76320000D02*
X193500000Y-82900000D01*
X167640000Y-76320000D02*
X186920000Y-76320000D01*
X225600000Y-85700000D02*
X225600000Y-83550000D01*
X225400000Y-60000000D02*
X225400000Y-70400000D01*
X225400000Y-70400000D02*
X225050000Y-70750000D01*
M02*
