M48
; DRILL file {KiCad 5.1.5+dfsg1-2build2} date Thu 29 Oct 2020 11:22:59 PM PDT
; FORMAT={-:-/ absolute / inch / decimal}
; #@! TF.CreationDate,2020-10-29T23:22:59-07:00
; #@! TF.GenerationSoftware,Kicad,Pcbnew,5.1.5+dfsg1-2build2
; #@! TF.FileFunction,Plated,1,2,PTH
FMAT,2
INCH
T1C0.0157
T2C0.0394
T3C0.0402
T4C0.1260
%
G90
G05
T1
X6.0965Y-3.75
X6.2441Y-3.4665
X6.252Y-3.8681
X6.2579Y-3.5571
X6.4512Y-1.815
X6.4886Y-2.0413
X6.5059Y-2.4094
X6.6Y-3.0047
X6.6181Y-2.3642
X6.7244Y-2.313
X7.0319Y-1.815
X7.2264Y-3.6299
X7.2756Y-1.811
X7.2913Y-2.0394
X7.3406Y-2.4094
X7.3484Y-3.0709
X7.4449Y-2.3642
X7.565Y-2.313
X7.5669Y-2.876
X7.6575Y-2.8327
X7.8563Y-1.811
X8.0039Y-2.4094
X8.0984Y-1.815
X8.124Y-2.3642
X8.1398Y-2.0394
X8.2323Y-2.313
X8.6142Y-2.3504
X8.6791Y-1.813
X8.8287Y-3.0807
X8.8425Y-2.4843
X8.874Y-2.3622
X8.8819Y-3.2894
X8.9134Y-2.3878
X8.9134Y-2.9843
X8.9409Y-2.2913
X8.9449Y-2.685
T2
X9.0709Y-2.1843
X9.0709Y-2.2843
X9.0709Y-2.3843
X9.0709Y-2.4843
X9.0709Y-2.5843
X9.0709Y-2.6843
X9.0709Y-2.7843
X9.0709Y-2.8843
X9.0709Y-2.9843
X9.0709Y-3.0843
X9.0709Y-3.1843
X9.0709Y-3.2843
X9.0709Y-3.3843
X9.0709Y-3.4843
T3
X7.4Y-2.55
X8.5236Y-2.3474
X8.4311Y-2.2205
X8.6201Y-2.2205
X7.8465Y-2.5098
X7.8465Y-2.6098
X7.8465Y-2.7098
X7.8465Y-2.8098
X7.8465Y-2.9098
X7.8465Y-3.0098
X7.8465Y-3.1098
X7.8465Y-3.2098
X7.8465Y-3.3098
X7.8465Y-3.4098
X7.9465Y-2.5098
X7.9465Y-2.6098
X7.9465Y-2.7098
X7.9465Y-2.8098
X7.9465Y-2.9098
X7.9465Y-3.0098
X7.9465Y-3.1098
X7.9465Y-3.2098
X7.9465Y-3.3098
X7.9465Y-3.4098
X8.0465Y-2.5098
X8.0465Y-2.6098
X8.0465Y-2.7098
X8.0465Y-2.8098
X8.0465Y-2.9098
X8.0465Y-3.0098
X8.0465Y-3.1098
X8.0465Y-3.2098
X8.0465Y-3.3098
X8.0465Y-3.4098
X8.1465Y-2.5098
X8.1465Y-2.6098
X8.1465Y-2.7098
X8.1465Y-2.8098
X8.1465Y-2.9098
X8.1465Y-3.0098
X8.1465Y-3.1098
X8.1465Y-3.2098
X8.1465Y-3.3098
X8.1465Y-3.4098
X8.2465Y-2.5098
X8.2465Y-2.6098
X8.2465Y-2.7098
X8.2465Y-2.8098
X8.2465Y-2.9098
X8.2465Y-3.0098
X8.2465Y-3.1098
X8.2465Y-3.2098
X8.2465Y-3.3098
X8.2465Y-3.4098
X8.3465Y-2.5098
X8.3465Y-2.6098
X8.3465Y-2.7098
X8.3465Y-2.8098
X8.3465Y-2.9098
X8.3465Y-3.0098
X8.3465Y-3.1098
X8.3465Y-3.2098
X8.3465Y-3.3098
X8.3465Y-3.4098
X8.4465Y-2.5098
X8.4465Y-2.6098
X8.4465Y-2.7098
X8.4465Y-2.8098
X8.4465Y-2.9098
X8.4465Y-3.0098
X8.4465Y-3.1098
X8.4465Y-3.2098
X8.4465Y-3.3098
X8.4465Y-3.4098
X8.5465Y-2.5098
X8.5465Y-2.6098
X8.5465Y-2.7098
X8.5465Y-2.8098
X8.5465Y-2.9098
X8.5465Y-3.0098
X8.5465Y-3.1098
X8.5465Y-3.2098
X8.5465Y-3.3098
X8.5465Y-3.4098
X8.6465Y-2.5098
X8.6465Y-2.6098
X8.6465Y-2.7098
X8.6465Y-2.8098
X8.6465Y-2.9098
X8.6465Y-3.0098
X8.6465Y-3.1098
X8.6465Y-3.2098
X8.6465Y-3.3098
X8.6465Y-3.4098
X8.7465Y-2.5098
X8.7465Y-2.6098
X8.7465Y-2.7098
X8.7465Y-2.8098
X8.7465Y-2.9098
X8.7465Y-3.0098
X8.7465Y-3.1098
X8.7465Y-3.2098
X8.7465Y-3.3098
X8.7465Y-3.4098
X8.05Y-3.7
X6.7898Y-2.2185
X6.8Y-2.55
X7.75Y-3.7
X8.6634Y-3.685
X7.6083Y-2.2146
X7.0732Y-2.2185
X8.4724Y-3.685
X7.2Y-2.55
X8.7146Y-2.2205
X7.5Y-2.55
X7.8898Y-2.2146
X6.0815Y-2.7217
X6.0815Y-3.3217
X6.1815Y-2.7217
X6.1815Y-3.3217
X6.2815Y-2.7217
X6.2815Y-3.3217
X6.3815Y-2.7217
X6.3815Y-3.3217
X6.4815Y-2.7217
X6.4815Y-3.3217
X6.5815Y-2.7217
X6.5815Y-3.3217
X6.6815Y-2.7217
X6.6815Y-3.3217
X6.7815Y-2.7217
X6.7815Y-3.3217
X6.8815Y-2.7217
X6.8815Y-3.3217
X6.9815Y-2.7217
X6.9815Y-3.3217
X7.0815Y-2.7217
X7.0815Y-3.3217
X7.1815Y-2.7217
X7.1815Y-3.3217
X7.2815Y-2.7217
X7.2815Y-3.3217
X7.3815Y-2.7217
X7.3815Y-3.3217
X7.4815Y-2.7217
X7.4815Y-3.3217
X6.7Y-2.55
X7.65Y-3.7
X7.85Y-3.7
X7.95Y-3.7
X6.9Y-2.55
X8.939Y-2.1831
X7.55Y-3.7
X8.5256Y-2.2205
X7.7028Y-2.2146
X6.8843Y-2.2185
X7.1Y-2.55
X6.9787Y-2.2185
X7.6Y-2.55
X8.1516Y-3.7008
X7.7972Y-2.2146
X8.8602Y-2.7854
X8.5689Y-3.685
X7.0Y-2.55
X8.8583Y-3.185
X7.3Y-2.55
X6.6Y-2.55
T4
X8.878Y-3.7008
X5.8858Y-1.9685
X8.878Y-1.9685
X5.8858Y-3.6811
T2
G00X6.0335Y-2.3268
M15
G01X6.0335Y-2.4055
M16
G05
G00X6.1122Y-2.1811
M15
G01X6.1909Y-2.1811
M16
G05
G00X6.2697Y-2.3268
M15
G01X6.2697Y-2.4055
M16
G05
T0
M30
