G04 #@! TF.GenerationSoftware,KiCad,Pcbnew,5.1.5+dfsg1-2build2*
G04 #@! TF.CreationDate,2020-11-18T21:04:39-08:00*
G04 #@! TF.ProjectId,Tapper,54617070-6572-42e6-9b69-6361645f7063,rev?*
G04 #@! TF.SameCoordinates,Original*
G04 #@! TF.FileFunction,Legend,Bot*
G04 #@! TF.FilePolarity,Positive*
%FSLAX46Y46*%
G04 Gerber Fmt 4.6, Leading zero omitted, Abs format (unit mm)*
G04 Created by KiCad (PCBNEW 5.1.5+dfsg1-2build2) date 2020-11-18 21:04:39*
%MOMM*%
%LPD*%
G04 APERTURE LIST*
%ADD10C,0.150000*%
%ADD11C,0.300000*%
%ADD12C,0.120000*%
%ADD13C,0.400000*%
%ADD14C,0.127000*%
G04 APERTURE END LIST*
D10*
X224497619Y-56573809D02*
X225497619Y-56573809D01*
X224497619Y-55526190D02*
X224973809Y-55859523D01*
X224497619Y-56097619D02*
X225497619Y-56097619D01*
X225497619Y-55716666D01*
X225450000Y-55621428D01*
X225402380Y-55573809D01*
X225307142Y-55526190D01*
X225164285Y-55526190D01*
X225069047Y-55573809D01*
X225021428Y-55621428D01*
X224973809Y-55716666D01*
X224973809Y-56097619D01*
X224402380Y-54430952D02*
X224450000Y-54526190D01*
X224545238Y-54621428D01*
X224688095Y-54764285D01*
X224735714Y-54859523D01*
X224735714Y-54954761D01*
X224497619Y-54907142D02*
X224545238Y-55002380D01*
X224640476Y-55097619D01*
X224830952Y-55145238D01*
X225164285Y-55145238D01*
X225354761Y-55097619D01*
X225450000Y-55002380D01*
X225497619Y-54907142D01*
X225497619Y-54716666D01*
X225450000Y-54621428D01*
X225354761Y-54526190D01*
X225164285Y-54478571D01*
X224830952Y-54478571D01*
X224640476Y-54526190D01*
X224545238Y-54621428D01*
X224497619Y-54716666D01*
X224497619Y-54907142D01*
X192866666Y-63175119D02*
X192866666Y-62794166D01*
X192638095Y-63251309D02*
X193438095Y-62984642D01*
X192638095Y-62717976D01*
X192638095Y-62032261D02*
X192638095Y-62489404D01*
X192638095Y-62260833D02*
X193438095Y-62260833D01*
X193323809Y-62337023D01*
X193247619Y-62413214D01*
X193209523Y-62489404D01*
X193438095Y-61537023D02*
X193438095Y-61460833D01*
X193400000Y-61384642D01*
X193361904Y-61346547D01*
X193285714Y-61308452D01*
X193133333Y-61270357D01*
X192942857Y-61270357D01*
X192790476Y-61308452D01*
X192714285Y-61346547D01*
X192676190Y-61384642D01*
X192638095Y-61460833D01*
X192638095Y-61537023D01*
X192676190Y-61613214D01*
X192714285Y-61651309D01*
X192790476Y-61689404D01*
X192942857Y-61727500D01*
X193133333Y-61727500D01*
X193285714Y-61689404D01*
X193361904Y-61651309D01*
X193400000Y-61613214D01*
X193438095Y-61537023D01*
X190316666Y-63150119D02*
X190316666Y-62769166D01*
X190088095Y-63226309D02*
X190888095Y-62959642D01*
X190088095Y-62692976D01*
X190088095Y-62388214D02*
X190088095Y-62235833D01*
X190126190Y-62159642D01*
X190164285Y-62121547D01*
X190278571Y-62045357D01*
X190430952Y-62007261D01*
X190735714Y-62007261D01*
X190811904Y-62045357D01*
X190850000Y-62083452D01*
X190888095Y-62159642D01*
X190888095Y-62312023D01*
X190850000Y-62388214D01*
X190811904Y-62426309D01*
X190735714Y-62464404D01*
X190545238Y-62464404D01*
X190469047Y-62426309D01*
X190430952Y-62388214D01*
X190392857Y-62312023D01*
X190392857Y-62159642D01*
X190430952Y-62083452D01*
X190469047Y-62045357D01*
X190545238Y-62007261D01*
X187957142Y-62895357D02*
X187919047Y-62781071D01*
X187880952Y-62742976D01*
X187804761Y-62704880D01*
X187690476Y-62704880D01*
X187614285Y-62742976D01*
X187576190Y-62781071D01*
X187538095Y-62857261D01*
X187538095Y-63162023D01*
X188338095Y-63162023D01*
X188338095Y-62895357D01*
X188300000Y-62819166D01*
X188261904Y-62781071D01*
X188185714Y-62742976D01*
X188109523Y-62742976D01*
X188033333Y-62781071D01*
X187995238Y-62819166D01*
X187957142Y-62895357D01*
X187957142Y-63162023D01*
X188071428Y-62019166D02*
X187538095Y-62019166D01*
X188376190Y-62209642D02*
X187804761Y-62400119D01*
X187804761Y-61904880D01*
X185557142Y-62920357D02*
X185519047Y-62806071D01*
X185480952Y-62767976D01*
X185404761Y-62729880D01*
X185290476Y-62729880D01*
X185214285Y-62767976D01*
X185176190Y-62806071D01*
X185138095Y-62882261D01*
X185138095Y-63187023D01*
X185938095Y-63187023D01*
X185938095Y-62920357D01*
X185900000Y-62844166D01*
X185861904Y-62806071D01*
X185785714Y-62767976D01*
X185709523Y-62767976D01*
X185633333Y-62806071D01*
X185595238Y-62844166D01*
X185557142Y-62920357D01*
X185557142Y-63187023D01*
X185938095Y-62006071D02*
X185938095Y-62387023D01*
X185557142Y-62425119D01*
X185595238Y-62387023D01*
X185633333Y-62310833D01*
X185633333Y-62120357D01*
X185595238Y-62044166D01*
X185557142Y-62006071D01*
X185480952Y-61967976D01*
X185290476Y-61967976D01*
X185214285Y-62006071D01*
X185176190Y-62044166D01*
X185138095Y-62120357D01*
X185138095Y-62310833D01*
X185176190Y-62387023D01*
X185214285Y-62425119D01*
X182741666Y-63225119D02*
X182741666Y-62844166D01*
X182513095Y-63301309D02*
X183313095Y-63034642D01*
X182513095Y-62767976D01*
X182513095Y-62082261D02*
X182513095Y-62539404D01*
X182513095Y-62310833D02*
X183313095Y-62310833D01*
X183198809Y-62387023D01*
X183122619Y-62463214D01*
X183084523Y-62539404D01*
X182513095Y-61320357D02*
X182513095Y-61777500D01*
X182513095Y-61548928D02*
X183313095Y-61548928D01*
X183198809Y-61625119D01*
X183122619Y-61701309D01*
X183084523Y-61777500D01*
X167263095Y-62879880D02*
X167644047Y-63146547D01*
X167263095Y-63337023D02*
X168063095Y-63337023D01*
X168063095Y-63032261D01*
X168025000Y-62956071D01*
X167986904Y-62917976D01*
X167910714Y-62879880D01*
X167796428Y-62879880D01*
X167720238Y-62917976D01*
X167682142Y-62956071D01*
X167644047Y-63032261D01*
X167644047Y-63337023D01*
X167301190Y-62575119D02*
X167263095Y-62460833D01*
X167263095Y-62270357D01*
X167301190Y-62194166D01*
X167339285Y-62156071D01*
X167415476Y-62117976D01*
X167491666Y-62117976D01*
X167567857Y-62156071D01*
X167605952Y-62194166D01*
X167644047Y-62270357D01*
X167682142Y-62422738D01*
X167720238Y-62498928D01*
X167758333Y-62537023D01*
X167834523Y-62575119D01*
X167910714Y-62575119D01*
X167986904Y-62537023D01*
X168025000Y-62498928D01*
X168063095Y-62422738D01*
X168063095Y-62232261D01*
X168025000Y-62117976D01*
X168063095Y-61889404D02*
X168063095Y-61432261D01*
X167263095Y-61660833D02*
X168063095Y-61660833D01*
X170066666Y-63175119D02*
X170066666Y-62794166D01*
X169838095Y-63251309D02*
X170638095Y-62984642D01*
X169838095Y-62717976D01*
X169838095Y-62032261D02*
X169838095Y-62489404D01*
X169838095Y-62260833D02*
X170638095Y-62260833D01*
X170523809Y-62337023D01*
X170447619Y-62413214D01*
X170409523Y-62489404D01*
X170561904Y-61727500D02*
X170600000Y-61689404D01*
X170638095Y-61613214D01*
X170638095Y-61422738D01*
X170600000Y-61346547D01*
X170561904Y-61308452D01*
X170485714Y-61270357D01*
X170409523Y-61270357D01*
X170295238Y-61308452D01*
X169838095Y-61765595D01*
X169838095Y-61270357D01*
X172857142Y-62845357D02*
X172819047Y-62731071D01*
X172780952Y-62692976D01*
X172704761Y-62654880D01*
X172590476Y-62654880D01*
X172514285Y-62692976D01*
X172476190Y-62731071D01*
X172438095Y-62807261D01*
X172438095Y-63112023D01*
X173238095Y-63112023D01*
X173238095Y-62845357D01*
X173200000Y-62769166D01*
X173161904Y-62731071D01*
X173085714Y-62692976D01*
X173009523Y-62692976D01*
X172933333Y-62731071D01*
X172895238Y-62769166D01*
X172857142Y-62845357D01*
X172857142Y-63112023D01*
X173238095Y-62388214D02*
X173238095Y-61854880D01*
X172438095Y-62197738D01*
X175166666Y-63200119D02*
X175166666Y-62819166D01*
X174938095Y-63276309D02*
X175738095Y-63009642D01*
X174938095Y-62742976D01*
X174938095Y-62057261D02*
X174938095Y-62514404D01*
X174938095Y-62285833D02*
X175738095Y-62285833D01*
X175623809Y-62362023D01*
X175547619Y-62438214D01*
X175509523Y-62514404D01*
X175738095Y-61333452D02*
X175738095Y-61714404D01*
X175357142Y-61752500D01*
X175395238Y-61714404D01*
X175433333Y-61638214D01*
X175433333Y-61447738D01*
X175395238Y-61371547D01*
X175357142Y-61333452D01*
X175280952Y-61295357D01*
X175090476Y-61295357D01*
X175014285Y-61333452D01*
X174976190Y-61371547D01*
X174938095Y-61447738D01*
X174938095Y-61638214D01*
X174976190Y-61714404D01*
X175014285Y-61752500D01*
X177807142Y-63023809D02*
X177769047Y-62909523D01*
X177730952Y-62871428D01*
X177654761Y-62833333D01*
X177540476Y-62833333D01*
X177464285Y-62871428D01*
X177426190Y-62909523D01*
X177388095Y-62985714D01*
X177388095Y-63290476D01*
X178188095Y-63290476D01*
X178188095Y-63023809D01*
X178150000Y-62947619D01*
X178111904Y-62909523D01*
X178035714Y-62871428D01*
X177959523Y-62871428D01*
X177883333Y-62909523D01*
X177845238Y-62947619D01*
X177807142Y-63023809D01*
X177807142Y-63290476D01*
X178188095Y-62147619D02*
X178188095Y-62300000D01*
X178150000Y-62376190D01*
X178111904Y-62414285D01*
X177997619Y-62490476D01*
X177845238Y-62528571D01*
X177540476Y-62528571D01*
X177464285Y-62490476D01*
X177426190Y-62452380D01*
X177388095Y-62376190D01*
X177388095Y-62223809D01*
X177426190Y-62147619D01*
X177464285Y-62109523D01*
X177540476Y-62071428D01*
X177730952Y-62071428D01*
X177807142Y-62109523D01*
X177845238Y-62147619D01*
X177883333Y-62223809D01*
X177883333Y-62376190D01*
X177845238Y-62452380D01*
X177807142Y-62490476D01*
X177730952Y-62528571D01*
X180357142Y-62941666D02*
X180357142Y-63208333D01*
X179938095Y-63208333D02*
X180738095Y-63208333D01*
X180738095Y-62827380D01*
X180738095Y-62370238D02*
X180738095Y-62294047D01*
X180700000Y-62217857D01*
X180661904Y-62179761D01*
X180585714Y-62141666D01*
X180433333Y-62103571D01*
X180242857Y-62103571D01*
X180090476Y-62141666D01*
X180014285Y-62179761D01*
X179976190Y-62217857D01*
X179938095Y-62294047D01*
X179938095Y-62370238D01*
X179976190Y-62446428D01*
X180014285Y-62484523D01*
X180090476Y-62522619D01*
X180242857Y-62560714D01*
X180433333Y-62560714D01*
X180585714Y-62522619D01*
X180661904Y-62484523D01*
X180700000Y-62446428D01*
X180738095Y-62370238D01*
D11*
X195317142Y-96408571D02*
X194460000Y-96408571D01*
X194888571Y-97908571D02*
X194888571Y-96408571D01*
X193317142Y-97908571D02*
X193317142Y-97122857D01*
X193388571Y-96980000D01*
X193531428Y-96908571D01*
X193817142Y-96908571D01*
X193960000Y-96980000D01*
X193317142Y-97837142D02*
X193460000Y-97908571D01*
X193817142Y-97908571D01*
X193960000Y-97837142D01*
X194031428Y-97694285D01*
X194031428Y-97551428D01*
X193960000Y-97408571D01*
X193817142Y-97337142D01*
X193460000Y-97337142D01*
X193317142Y-97265714D01*
X192602857Y-96908571D02*
X192602857Y-98408571D01*
X192602857Y-96980000D02*
X192460000Y-96908571D01*
X192174285Y-96908571D01*
X192031428Y-96980000D01*
X191960000Y-97051428D01*
X191888571Y-97194285D01*
X191888571Y-97622857D01*
X191960000Y-97765714D01*
X192031428Y-97837142D01*
X192174285Y-97908571D01*
X192460000Y-97908571D01*
X192602857Y-97837142D01*
X191245714Y-96908571D02*
X191245714Y-98408571D01*
X191245714Y-96980000D02*
X191102857Y-96908571D01*
X190817142Y-96908571D01*
X190674285Y-96980000D01*
X190602857Y-97051428D01*
X190531428Y-97194285D01*
X190531428Y-97622857D01*
X190602857Y-97765714D01*
X190674285Y-97837142D01*
X190817142Y-97908571D01*
X191102857Y-97908571D01*
X191245714Y-97837142D01*
X189317142Y-97837142D02*
X189460000Y-97908571D01*
X189745714Y-97908571D01*
X189888571Y-97837142D01*
X189960000Y-97694285D01*
X189960000Y-97122857D01*
X189888571Y-96980000D01*
X189745714Y-96908571D01*
X189460000Y-96908571D01*
X189317142Y-96980000D01*
X189245714Y-97122857D01*
X189245714Y-97265714D01*
X189960000Y-97408571D01*
X188602857Y-97908571D02*
X188602857Y-96908571D01*
X188602857Y-97194285D02*
X188531428Y-97051428D01*
X188460000Y-96980000D01*
X188317142Y-96908571D01*
X188174285Y-96908571D01*
X186531428Y-97908571D02*
X186531428Y-96908571D01*
X186531428Y-97194285D02*
X186460000Y-97051428D01*
X186388571Y-96980000D01*
X186245714Y-96908571D01*
X186102857Y-96908571D01*
X185031428Y-97837142D02*
X185174285Y-97908571D01*
X185460000Y-97908571D01*
X185602857Y-97837142D01*
X185674285Y-97694285D01*
X185674285Y-97122857D01*
X185602857Y-96980000D01*
X185460000Y-96908571D01*
X185174285Y-96908571D01*
X185031428Y-96980000D01*
X184960000Y-97122857D01*
X184960000Y-97265714D01*
X185674285Y-97408571D01*
X184460000Y-96908571D02*
X184102857Y-97908571D01*
X183745714Y-96908571D01*
X182102857Y-96551428D02*
X182031428Y-96480000D01*
X181888571Y-96408571D01*
X181531428Y-96408571D01*
X181388571Y-96480000D01*
X181317142Y-96551428D01*
X181245714Y-96694285D01*
X181245714Y-96837142D01*
X181317142Y-97051428D01*
X182174285Y-97908571D01*
X181245714Y-97908571D01*
D10*
X214420595Y-59760000D02*
X214515833Y-59712380D01*
X214658690Y-59712380D01*
X214801547Y-59760000D01*
X214896785Y-59855238D01*
X214944404Y-59950476D01*
X214992023Y-60140952D01*
X214992023Y-60283809D01*
X214944404Y-60474285D01*
X214896785Y-60569523D01*
X214801547Y-60664761D01*
X214658690Y-60712380D01*
X214563452Y-60712380D01*
X214420595Y-60664761D01*
X214372976Y-60617142D01*
X214372976Y-60283809D01*
X214563452Y-60283809D01*
X213944404Y-60712380D02*
X213944404Y-59712380D01*
X213372976Y-60712380D01*
X213372976Y-59712380D01*
X212896785Y-60712380D02*
X212896785Y-59712380D01*
X212658690Y-59712380D01*
X212515833Y-59760000D01*
X212420595Y-59855238D01*
X212372976Y-59950476D01*
X212325357Y-60140952D01*
X212325357Y-60283809D01*
X212372976Y-60474285D01*
X212420595Y-60569523D01*
X212515833Y-60664761D01*
X212658690Y-60712380D01*
X212896785Y-60712380D01*
X164357619Y-61276190D02*
X164357619Y-60657142D01*
X163976666Y-60990476D01*
X163976666Y-60847619D01*
X163929047Y-60752380D01*
X163881428Y-60704761D01*
X163786190Y-60657142D01*
X163548095Y-60657142D01*
X163452857Y-60704761D01*
X163405238Y-60752380D01*
X163357619Y-60847619D01*
X163357619Y-61133333D01*
X163405238Y-61228571D01*
X163452857Y-61276190D01*
X163452857Y-60228571D02*
X163405238Y-60180952D01*
X163357619Y-60228571D01*
X163405238Y-60276190D01*
X163452857Y-60228571D01*
X163357619Y-60228571D01*
X164357619Y-59847619D02*
X164357619Y-59228571D01*
X163976666Y-59561904D01*
X163976666Y-59419047D01*
X163929047Y-59323809D01*
X163881428Y-59276190D01*
X163786190Y-59228571D01*
X163548095Y-59228571D01*
X163452857Y-59276190D01*
X163405238Y-59323809D01*
X163357619Y-59419047D01*
X163357619Y-59704761D01*
X163405238Y-59800000D01*
X163452857Y-59847619D01*
X164357619Y-58942857D02*
X163357619Y-58609523D01*
X164357619Y-58276190D01*
X167157619Y-59390476D02*
X167157619Y-59866666D01*
X166681428Y-59914285D01*
X166729047Y-59866666D01*
X166776666Y-59771428D01*
X166776666Y-59533333D01*
X166729047Y-59438095D01*
X166681428Y-59390476D01*
X166586190Y-59342857D01*
X166348095Y-59342857D01*
X166252857Y-59390476D01*
X166205238Y-59438095D01*
X166157619Y-59533333D01*
X166157619Y-59771428D01*
X166205238Y-59866666D01*
X166252857Y-59914285D01*
X167157619Y-59057142D02*
X166157619Y-58723809D01*
X167157619Y-58390476D01*
X169907619Y-60395238D02*
X168907619Y-60061904D01*
X169907619Y-59728571D01*
X168907619Y-59395238D02*
X169907619Y-59395238D01*
X168907619Y-58919047D02*
X169907619Y-58919047D01*
X168907619Y-58347619D01*
X169907619Y-58347619D01*
X208197619Y-59390476D02*
X208197619Y-59866666D01*
X207721428Y-59914285D01*
X207769047Y-59866666D01*
X207816666Y-59771428D01*
X207816666Y-59533333D01*
X207769047Y-59438095D01*
X207721428Y-59390476D01*
X207626190Y-59342857D01*
X207388095Y-59342857D01*
X207292857Y-59390476D01*
X207245238Y-59438095D01*
X207197619Y-59533333D01*
X207197619Y-59771428D01*
X207245238Y-59866666D01*
X207292857Y-59914285D01*
X208197619Y-59057142D02*
X207197619Y-58723809D01*
X208197619Y-58390476D01*
X210947619Y-60395238D02*
X209947619Y-60061904D01*
X210947619Y-59728571D01*
X209947619Y-59395238D02*
X210947619Y-59395238D01*
X209947619Y-58919047D02*
X210947619Y-58919047D01*
X209947619Y-58347619D01*
X210947619Y-58347619D01*
X205397619Y-61276190D02*
X205397619Y-60657142D01*
X205016666Y-60990476D01*
X205016666Y-60847619D01*
X204969047Y-60752380D01*
X204921428Y-60704761D01*
X204826190Y-60657142D01*
X204588095Y-60657142D01*
X204492857Y-60704761D01*
X204445238Y-60752380D01*
X204397619Y-60847619D01*
X204397619Y-61133333D01*
X204445238Y-61228571D01*
X204492857Y-61276190D01*
X204492857Y-60228571D02*
X204445238Y-60180952D01*
X204397619Y-60228571D01*
X204445238Y-60276190D01*
X204492857Y-60228571D01*
X204397619Y-60228571D01*
X205397619Y-59847619D02*
X205397619Y-59228571D01*
X205016666Y-59561904D01*
X205016666Y-59419047D01*
X204969047Y-59323809D01*
X204921428Y-59276190D01*
X204826190Y-59228571D01*
X204588095Y-59228571D01*
X204492857Y-59276190D01*
X204445238Y-59323809D01*
X204397619Y-59419047D01*
X204397619Y-59704761D01*
X204445238Y-59800000D01*
X204492857Y-59847619D01*
X205397619Y-58942857D02*
X204397619Y-58609523D01*
X205397619Y-58276190D01*
X227587619Y-71322857D02*
X227587619Y-71799047D01*
X228587619Y-71799047D01*
X228111428Y-70989523D02*
X228111428Y-70656190D01*
X227587619Y-70513333D02*
X227587619Y-70989523D01*
X228587619Y-70989523D01*
X228587619Y-70513333D01*
X227587619Y-70084761D02*
X228587619Y-70084761D01*
X228587619Y-69846666D01*
X228540000Y-69703809D01*
X228444761Y-69608571D01*
X228349523Y-69560952D01*
X228159047Y-69513333D01*
X228016190Y-69513333D01*
X227825714Y-69560952D01*
X227730476Y-69608571D01*
X227635238Y-69703809D01*
X227587619Y-69846666D01*
X227587619Y-70084761D01*
X227457619Y-81417619D02*
X227933809Y-81750952D01*
X227457619Y-81989047D02*
X228457619Y-81989047D01*
X228457619Y-81608095D01*
X228410000Y-81512857D01*
X228362380Y-81465238D01*
X228267142Y-81417619D01*
X228124285Y-81417619D01*
X228029047Y-81465238D01*
X227981428Y-81512857D01*
X227933809Y-81608095D01*
X227933809Y-81989047D01*
X227505238Y-81036666D02*
X227457619Y-80893809D01*
X227457619Y-80655714D01*
X227505238Y-80560476D01*
X227552857Y-80512857D01*
X227648095Y-80465238D01*
X227743333Y-80465238D01*
X227838571Y-80512857D01*
X227886190Y-80560476D01*
X227933809Y-80655714D01*
X227981428Y-80846190D01*
X228029047Y-80941428D01*
X228076666Y-80989047D01*
X228171904Y-81036666D01*
X228267142Y-81036666D01*
X228362380Y-80989047D01*
X228410000Y-80941428D01*
X228457619Y-80846190D01*
X228457619Y-80608095D01*
X228410000Y-80465238D01*
X228457619Y-80179523D02*
X228457619Y-79608095D01*
X227457619Y-79893809D02*
X228457619Y-79893809D01*
X207450000Y-91840595D02*
X207497619Y-91935833D01*
X207497619Y-92078690D01*
X207450000Y-92221547D01*
X207354761Y-92316785D01*
X207259523Y-92364404D01*
X207069047Y-92412023D01*
X206926190Y-92412023D01*
X206735714Y-92364404D01*
X206640476Y-92316785D01*
X206545238Y-92221547D01*
X206497619Y-92078690D01*
X206497619Y-91983452D01*
X206545238Y-91840595D01*
X206592857Y-91792976D01*
X206926190Y-91792976D01*
X206926190Y-91983452D01*
X206497619Y-91364404D02*
X207497619Y-91364404D01*
X206497619Y-90792976D01*
X207497619Y-90792976D01*
X206497619Y-90316785D02*
X207497619Y-90316785D01*
X207497619Y-90078690D01*
X207450000Y-89935833D01*
X207354761Y-89840595D01*
X207259523Y-89792976D01*
X207069047Y-89745357D01*
X206926190Y-89745357D01*
X206735714Y-89792976D01*
X206640476Y-89840595D01*
X206545238Y-89935833D01*
X206497619Y-90078690D01*
X206497619Y-90316785D01*
X191583333Y-92162023D02*
X191583333Y-91685833D01*
X191297619Y-92257261D02*
X192297619Y-91923928D01*
X191297619Y-91590595D01*
X191297619Y-90733452D02*
X191297619Y-91304880D01*
X191297619Y-91019166D02*
X192297619Y-91019166D01*
X192154761Y-91114404D01*
X192059523Y-91209642D01*
X192011904Y-91304880D01*
X194183333Y-92262023D02*
X194183333Y-91785833D01*
X193897619Y-92357261D02*
X194897619Y-92023928D01*
X193897619Y-91690595D01*
X194897619Y-91166785D02*
X194897619Y-91071547D01*
X194850000Y-90976309D01*
X194802380Y-90928690D01*
X194707142Y-90881071D01*
X194516666Y-90833452D01*
X194278571Y-90833452D01*
X194088095Y-90881071D01*
X193992857Y-90928690D01*
X193945238Y-90976309D01*
X193897619Y-91071547D01*
X193897619Y-91166785D01*
X193945238Y-91262023D01*
X193992857Y-91309642D01*
X194088095Y-91357261D01*
X194278571Y-91404880D01*
X194516666Y-91404880D01*
X194707142Y-91357261D01*
X194802380Y-91309642D01*
X194850000Y-91262023D01*
X194897619Y-91166785D01*
X196683333Y-92312023D02*
X196683333Y-91835833D01*
X196397619Y-92407261D02*
X197397619Y-92073928D01*
X196397619Y-91740595D01*
X196397619Y-90835833D02*
X196873809Y-91169166D01*
X196397619Y-91407261D02*
X197397619Y-91407261D01*
X197397619Y-91026309D01*
X197350000Y-90931071D01*
X197302380Y-90883452D01*
X197207142Y-90835833D01*
X197064285Y-90835833D01*
X196969047Y-90883452D01*
X196921428Y-90931071D01*
X196873809Y-91026309D01*
X196873809Y-91407261D01*
X196921428Y-90407261D02*
X196921428Y-90073928D01*
X196397619Y-89931071D02*
X196397619Y-90407261D01*
X197397619Y-90407261D01*
X197397619Y-89931071D01*
X196921428Y-89169166D02*
X196921428Y-89502500D01*
X196397619Y-89502500D02*
X197397619Y-89502500D01*
X197397619Y-89026309D01*
X199421428Y-91931071D02*
X199373809Y-91788214D01*
X199326190Y-91740595D01*
X199230952Y-91692976D01*
X199088095Y-91692976D01*
X198992857Y-91740595D01*
X198945238Y-91788214D01*
X198897619Y-91883452D01*
X198897619Y-92264404D01*
X199897619Y-92264404D01*
X199897619Y-91931071D01*
X199850000Y-91835833D01*
X199802380Y-91788214D01*
X199707142Y-91740595D01*
X199611904Y-91740595D01*
X199516666Y-91788214D01*
X199469047Y-91835833D01*
X199421428Y-91931071D01*
X199421428Y-92264404D01*
X199897619Y-91359642D02*
X199897619Y-90740595D01*
X199516666Y-91073928D01*
X199516666Y-90931071D01*
X199469047Y-90835833D01*
X199421428Y-90788214D01*
X199326190Y-90740595D01*
X199088095Y-90740595D01*
X198992857Y-90788214D01*
X198945238Y-90835833D01*
X198897619Y-90931071D01*
X198897619Y-91216785D01*
X198945238Y-91312023D01*
X198992857Y-91359642D01*
X201783333Y-92312023D02*
X201783333Y-91835833D01*
X201497619Y-92407261D02*
X202497619Y-92073928D01*
X201497619Y-91740595D01*
X202497619Y-91502500D02*
X202497619Y-90883452D01*
X202116666Y-91216785D01*
X202116666Y-91073928D01*
X202069047Y-90978690D01*
X202021428Y-90931071D01*
X201926190Y-90883452D01*
X201688095Y-90883452D01*
X201592857Y-90931071D01*
X201545238Y-90978690D01*
X201497619Y-91073928D01*
X201497619Y-91359642D01*
X201545238Y-91454880D01*
X201592857Y-91502500D01*
X204383333Y-92162023D02*
X204383333Y-91685833D01*
X204097619Y-92257261D02*
X205097619Y-91923928D01*
X204097619Y-91590595D01*
X204764285Y-90828690D02*
X204097619Y-90828690D01*
X205145238Y-91066785D02*
X204430952Y-91304880D01*
X204430952Y-90685833D01*
X215647619Y-92126190D02*
X215647619Y-91507142D01*
X215266666Y-91840476D01*
X215266666Y-91697619D01*
X215219047Y-91602380D01*
X215171428Y-91554761D01*
X215076190Y-91507142D01*
X214838095Y-91507142D01*
X214742857Y-91554761D01*
X214695238Y-91602380D01*
X214647619Y-91697619D01*
X214647619Y-91983333D01*
X214695238Y-92078571D01*
X214742857Y-92126190D01*
X214742857Y-91078571D02*
X214695238Y-91030952D01*
X214647619Y-91078571D01*
X214695238Y-91126190D01*
X214742857Y-91078571D01*
X214647619Y-91078571D01*
X215647619Y-90697619D02*
X215647619Y-90078571D01*
X215266666Y-90411904D01*
X215266666Y-90269047D01*
X215219047Y-90173809D01*
X215171428Y-90126190D01*
X215076190Y-90078571D01*
X214838095Y-90078571D01*
X214742857Y-90126190D01*
X214695238Y-90173809D01*
X214647619Y-90269047D01*
X214647619Y-90554761D01*
X214695238Y-90650000D01*
X214742857Y-90697619D01*
X215647619Y-89792857D02*
X214647619Y-89459523D01*
X215647619Y-89126190D01*
X218247619Y-91490476D02*
X218247619Y-91966666D01*
X217771428Y-92014285D01*
X217819047Y-91966666D01*
X217866666Y-91871428D01*
X217866666Y-91633333D01*
X217819047Y-91538095D01*
X217771428Y-91490476D01*
X217676190Y-91442857D01*
X217438095Y-91442857D01*
X217342857Y-91490476D01*
X217295238Y-91538095D01*
X217247619Y-91633333D01*
X217247619Y-91871428D01*
X217295238Y-91966666D01*
X217342857Y-92014285D01*
X218247619Y-91157142D02*
X217247619Y-90823809D01*
X218247619Y-90490476D01*
X220597619Y-92245238D02*
X219597619Y-91911904D01*
X220597619Y-91578571D01*
X219597619Y-91245238D02*
X220597619Y-91245238D01*
X219597619Y-90769047D02*
X220597619Y-90769047D01*
X219597619Y-90197619D01*
X220597619Y-90197619D01*
X180357142Y-62941666D02*
X180357142Y-63208333D01*
X179938095Y-63208333D02*
X180738095Y-63208333D01*
X180738095Y-62827380D01*
X180738095Y-62370238D02*
X180738095Y-62294047D01*
X180700000Y-62217857D01*
X180661904Y-62179761D01*
X180585714Y-62141666D01*
X180433333Y-62103571D01*
X180242857Y-62103571D01*
X180090476Y-62141666D01*
X180014285Y-62179761D01*
X179976190Y-62217857D01*
X179938095Y-62294047D01*
X179938095Y-62370238D01*
X179976190Y-62446428D01*
X180014285Y-62484523D01*
X180090476Y-62522619D01*
X180242857Y-62560714D01*
X180433333Y-62560714D01*
X180585714Y-62522619D01*
X180661904Y-62484523D01*
X180700000Y-62446428D01*
X180738095Y-62370238D01*
X185547619Y-61176190D02*
X185547619Y-60557142D01*
X185166666Y-60890476D01*
X185166666Y-60747619D01*
X185119047Y-60652380D01*
X185071428Y-60604761D01*
X184976190Y-60557142D01*
X184738095Y-60557142D01*
X184642857Y-60604761D01*
X184595238Y-60652380D01*
X184547619Y-60747619D01*
X184547619Y-61033333D01*
X184595238Y-61128571D01*
X184642857Y-61176190D01*
X184642857Y-60128571D02*
X184595238Y-60080952D01*
X184547619Y-60128571D01*
X184595238Y-60176190D01*
X184642857Y-60128571D01*
X184547619Y-60128571D01*
X185547619Y-59747619D02*
X185547619Y-59128571D01*
X185166666Y-59461904D01*
X185166666Y-59319047D01*
X185119047Y-59223809D01*
X185071428Y-59176190D01*
X184976190Y-59128571D01*
X184738095Y-59128571D01*
X184642857Y-59176190D01*
X184595238Y-59223809D01*
X184547619Y-59319047D01*
X184547619Y-59604761D01*
X184595238Y-59700000D01*
X184642857Y-59747619D01*
X185547619Y-58842857D02*
X184547619Y-58509523D01*
X185547619Y-58176190D01*
X188347619Y-59290476D02*
X188347619Y-59766666D01*
X187871428Y-59814285D01*
X187919047Y-59766666D01*
X187966666Y-59671428D01*
X187966666Y-59433333D01*
X187919047Y-59338095D01*
X187871428Y-59290476D01*
X187776190Y-59242857D01*
X187538095Y-59242857D01*
X187442857Y-59290476D01*
X187395238Y-59338095D01*
X187347619Y-59433333D01*
X187347619Y-59671428D01*
X187395238Y-59766666D01*
X187442857Y-59814285D01*
X188347619Y-58957142D02*
X187347619Y-58623809D01*
X188347619Y-58290476D01*
X191097619Y-60295238D02*
X190097619Y-59961904D01*
X191097619Y-59628571D01*
X190097619Y-59295238D02*
X191097619Y-59295238D01*
X190097619Y-58819047D02*
X191097619Y-58819047D01*
X190097619Y-58247619D01*
X191097619Y-58247619D01*
D12*
X210065000Y-92127064D02*
X210065000Y-90922936D01*
X211885000Y-92127064D02*
X211885000Y-90922936D01*
D13*
X154670000Y-66590000D02*
G75*
G03X154670000Y-66590000I-200000J0D01*
G01*
D14*
X195745000Y-86020000D02*
X195745000Y-67480000D01*
X145580000Y-86021000D02*
X195745000Y-86020000D01*
X145580000Y-67480000D02*
X145580000Y-86021000D01*
X195745000Y-67480000D02*
X145580000Y-67480000D01*
D12*
X221647936Y-58790000D02*
X222852064Y-58790000D01*
X221647936Y-60610000D02*
X222852064Y-60610000D01*
X205850000Y-57750000D02*
X205850000Y-54950000D01*
X205850000Y-54950000D02*
X203850000Y-54950000D01*
X203850000Y-54950000D02*
X203850000Y-57750000D01*
X203850000Y-57750000D02*
X205850000Y-57750000D01*
X208650000Y-57750000D02*
X208650000Y-54950000D01*
X208650000Y-54950000D02*
X206650000Y-54950000D01*
X206650000Y-54950000D02*
X206650000Y-57750000D01*
X206650000Y-57750000D02*
X208650000Y-57750000D01*
X211350000Y-57750000D02*
X211350000Y-54950000D01*
X211350000Y-54950000D02*
X209350000Y-54950000D01*
X209350000Y-54950000D02*
X209350000Y-57750000D01*
X209350000Y-57750000D02*
X211350000Y-57750000D01*
X191500000Y-57600000D02*
X191500000Y-54800000D01*
X191500000Y-54800000D02*
X189500000Y-54800000D01*
X189500000Y-54800000D02*
X189500000Y-57600000D01*
X189500000Y-57600000D02*
X191500000Y-57600000D01*
X170460000Y-57650000D02*
X170460000Y-54850000D01*
X170460000Y-54850000D02*
X168460000Y-54850000D01*
X168460000Y-54850000D02*
X168460000Y-57650000D01*
X168460000Y-57650000D02*
X170460000Y-57650000D01*
X188800000Y-57600000D02*
X188800000Y-54800000D01*
X188800000Y-54800000D02*
X186800000Y-54800000D01*
X186800000Y-54800000D02*
X186800000Y-57600000D01*
X186800000Y-57600000D02*
X188800000Y-57600000D01*
X167760000Y-57675000D02*
X167760000Y-54875000D01*
X167760000Y-54875000D02*
X165760000Y-54875000D01*
X165760000Y-54875000D02*
X165760000Y-57675000D01*
X165760000Y-57675000D02*
X167760000Y-57675000D01*
X186000000Y-57600000D02*
X186000000Y-54800000D01*
X186000000Y-54800000D02*
X184000000Y-54800000D01*
X184000000Y-54800000D02*
X184000000Y-57600000D01*
X184000000Y-57600000D02*
X186000000Y-57600000D01*
X164810000Y-57700000D02*
X164810000Y-54900000D01*
X164810000Y-54900000D02*
X162810000Y-54900000D01*
X162810000Y-54900000D02*
X162810000Y-57700000D01*
X162810000Y-57700000D02*
X164810000Y-57700000D01*
X206710000Y-44440000D02*
X219390000Y-44440000D01*
X220090000Y-50660000D02*
X218810000Y-50660000D01*
X220090000Y-52260000D02*
X220090000Y-50660000D01*
X221110000Y-52260000D02*
X220090000Y-52260000D01*
X221110000Y-48010000D02*
X221110000Y-52260000D01*
X207290000Y-50660000D02*
X207290000Y-53550000D01*
X206010000Y-50660000D02*
X207290000Y-50660000D01*
X206010000Y-52260000D02*
X206010000Y-50660000D01*
X204990000Y-52260000D02*
X206010000Y-52260000D01*
X204990000Y-48010000D02*
X204990000Y-52260000D01*
X185860000Y-44390000D02*
X198540000Y-44390000D01*
X199240000Y-50610000D02*
X197960000Y-50610000D01*
X199240000Y-52210000D02*
X199240000Y-50610000D01*
X200260000Y-52210000D02*
X199240000Y-52210000D01*
X200260000Y-47960000D02*
X200260000Y-52210000D01*
X186440000Y-50610000D02*
X186440000Y-53500000D01*
X185160000Y-50610000D02*
X186440000Y-50610000D01*
X185160000Y-52210000D02*
X185160000Y-50610000D01*
X184140000Y-52210000D02*
X185160000Y-52210000D01*
X184140000Y-47960000D02*
X184140000Y-52210000D01*
X164920000Y-44440000D02*
X177600000Y-44440000D01*
X178300000Y-50660000D02*
X177020000Y-50660000D01*
X178300000Y-52260000D02*
X178300000Y-50660000D01*
X179320000Y-52260000D02*
X178300000Y-52260000D01*
X179320000Y-48010000D02*
X179320000Y-52260000D01*
X165500000Y-50660000D02*
X165500000Y-53550000D01*
X164220000Y-50660000D02*
X165500000Y-50660000D01*
X164220000Y-52260000D02*
X164220000Y-50660000D01*
X163200000Y-52260000D02*
X164220000Y-52260000D01*
X163200000Y-48010000D02*
X163200000Y-52260000D01*
X165750000Y-89510000D02*
X164650000Y-89510000D01*
X165750000Y-87700000D02*
X165750000Y-89510000D01*
X167250000Y-87700000D02*
X165750000Y-87700000D01*
X165750000Y-96290000D02*
X160625000Y-96290000D01*
X165750000Y-98100000D02*
X165750000Y-96290000D01*
X167250000Y-98100000D02*
X165750000Y-98100000D01*
X160150000Y-64700000D02*
X160150000Y-62100000D01*
X145450000Y-64700000D02*
X160150000Y-64700000D01*
X160150000Y-55500000D02*
X158250000Y-55500000D01*
X160150000Y-58200000D02*
X160150000Y-55500000D01*
X145450000Y-55500000D02*
X145450000Y-64700000D01*
X154250000Y-55500000D02*
X145450000Y-55500000D01*
X159300000Y-64900000D02*
X160350000Y-64900000D01*
X160350000Y-63850000D02*
X160350000Y-64900000D01*
X155740000Y-89361252D02*
X155740000Y-88838748D01*
X157160000Y-89361252D02*
X157160000Y-88838748D01*
X157510000Y-96147936D02*
X157510000Y-97352064D01*
X155690000Y-96147936D02*
X155690000Y-97352064D01*
D10*
X213247380Y-91358333D02*
X212771190Y-91025000D01*
X213247380Y-90786904D02*
X212247380Y-90786904D01*
X212247380Y-91167857D01*
X212295000Y-91263095D01*
X212342619Y-91310714D01*
X212437857Y-91358333D01*
X212580714Y-91358333D01*
X212675952Y-91310714D01*
X212723571Y-91263095D01*
X212771190Y-91167857D01*
X212771190Y-90786904D01*
X212342619Y-91739285D02*
X212295000Y-91786904D01*
X212247380Y-91882142D01*
X212247380Y-92120238D01*
X212295000Y-92215476D01*
X212342619Y-92263095D01*
X212437857Y-92310714D01*
X212533095Y-92310714D01*
X212675952Y-92263095D01*
X213247380Y-91691666D01*
X213247380Y-92310714D01*
X223791666Y-58152380D02*
X224125000Y-57676190D01*
X224363095Y-58152380D02*
X224363095Y-57152380D01*
X223982142Y-57152380D01*
X223886904Y-57200000D01*
X223839285Y-57247619D01*
X223791666Y-57342857D01*
X223791666Y-57485714D01*
X223839285Y-57580952D01*
X223886904Y-57628571D01*
X223982142Y-57676190D01*
X224363095Y-57676190D01*
X222839285Y-58152380D02*
X223410714Y-58152380D01*
X223125000Y-58152380D02*
X223125000Y-57152380D01*
X223220238Y-57295238D01*
X223315476Y-57390476D01*
X223410714Y-57438095D01*
X206058333Y-52702380D02*
X206058333Y-53416666D01*
X206105952Y-53559523D01*
X206201190Y-53654761D01*
X206344047Y-53702380D01*
X206439285Y-53702380D01*
X205153571Y-53035714D02*
X205153571Y-53702380D01*
X205391666Y-52654761D02*
X205629761Y-53369047D01*
X205010714Y-53369047D01*
X185258333Y-52652380D02*
X185258333Y-53366666D01*
X185305952Y-53509523D01*
X185401190Y-53604761D01*
X185544047Y-53652380D01*
X185639285Y-53652380D01*
X184877380Y-52652380D02*
X184258333Y-52652380D01*
X184591666Y-53033333D01*
X184448809Y-53033333D01*
X184353571Y-53080952D01*
X184305952Y-53128571D01*
X184258333Y-53223809D01*
X184258333Y-53461904D01*
X184305952Y-53557142D01*
X184353571Y-53604761D01*
X184448809Y-53652380D01*
X184734523Y-53652380D01*
X184829761Y-53604761D01*
X184877380Y-53557142D01*
X164293333Y-52702380D02*
X164293333Y-53416666D01*
X164340952Y-53559523D01*
X164436190Y-53654761D01*
X164579047Y-53702380D01*
X164674285Y-53702380D01*
X163864761Y-52797619D02*
X163817142Y-52750000D01*
X163721904Y-52702380D01*
X163483809Y-52702380D01*
X163388571Y-52750000D01*
X163340952Y-52797619D01*
X163293333Y-52892857D01*
X163293333Y-52988095D01*
X163340952Y-53130952D01*
X163912380Y-53702380D01*
X163293333Y-53702380D01*
X177677380Y-92238095D02*
X178486904Y-92238095D01*
X178582142Y-92285714D01*
X178629761Y-92333333D01*
X178677380Y-92428571D01*
X178677380Y-92619047D01*
X178629761Y-92714285D01*
X178582142Y-92761904D01*
X178486904Y-92809523D01*
X177677380Y-92809523D01*
X178677380Y-93809523D02*
X178677380Y-93238095D01*
X178677380Y-93523809D02*
X177677380Y-93523809D01*
X177820238Y-93428571D01*
X177915476Y-93333333D01*
X177963095Y-93238095D01*
X160977380Y-55841666D02*
X161691666Y-55841666D01*
X161834523Y-55794047D01*
X161929761Y-55698809D01*
X161977380Y-55555952D01*
X161977380Y-55460714D01*
X161977380Y-56841666D02*
X161977380Y-56270238D01*
X161977380Y-56555952D02*
X160977380Y-56555952D01*
X161120238Y-56460714D01*
X161215476Y-56365476D01*
X161263095Y-56270238D01*
X155132142Y-88858333D02*
X155179761Y-88810714D01*
X155227380Y-88667857D01*
X155227380Y-88572619D01*
X155179761Y-88429761D01*
X155084523Y-88334523D01*
X154989285Y-88286904D01*
X154798809Y-88239285D01*
X154655952Y-88239285D01*
X154465476Y-88286904D01*
X154370238Y-88334523D01*
X154275000Y-88429761D01*
X154227380Y-88572619D01*
X154227380Y-88667857D01*
X154275000Y-88810714D01*
X154322619Y-88858333D01*
X154322619Y-89239285D02*
X154275000Y-89286904D01*
X154227380Y-89382142D01*
X154227380Y-89620238D01*
X154275000Y-89715476D01*
X154322619Y-89763095D01*
X154417857Y-89810714D01*
X154513095Y-89810714D01*
X154655952Y-89763095D01*
X155227380Y-89191666D01*
X155227380Y-89810714D01*
X155137142Y-96583333D02*
X155184761Y-96535714D01*
X155232380Y-96392857D01*
X155232380Y-96297619D01*
X155184761Y-96154761D01*
X155089523Y-96059523D01*
X154994285Y-96011904D01*
X154803809Y-95964285D01*
X154660952Y-95964285D01*
X154470476Y-96011904D01*
X154375238Y-96059523D01*
X154280000Y-96154761D01*
X154232380Y-96297619D01*
X154232380Y-96392857D01*
X154280000Y-96535714D01*
X154327619Y-96583333D01*
X155232380Y-97535714D02*
X155232380Y-96964285D01*
X155232380Y-97250000D02*
X154232380Y-97250000D01*
X154375238Y-97154761D01*
X154470476Y-97059523D01*
X154518095Y-96964285D01*
M02*
